<svg xmlns="http://www.w3.org/2000/svg" width="341.5" height="274.472" viewBox="0 0 341.5 274.472">
  <g id="add-user-svgrepo-com" transform="translate(6.5 -27.014)">
    <g id="Gruppe_2" data-name="Gruppe 2">
      <path id="Pfad_45" data-name="Pfad 45" d="M96.333,150.918v-15H55.667V95.251h-15v40.667H0v15H40.667v40.665h15V150.918Z" fill="#fff" stroke="#fff" stroke-width="13"/>
      <path id="Pfad_46" data-name="Pfad 46" d="M259.383,185.941H145.858a69.2,69.2,0,0,0-69.117,69.117v39.928H328.5V255.058A69.2,69.2,0,0,0,259.383,185.941ZM313.5,279.987H91.741V255.059a54.178,54.178,0,0,1,54.117-54.117H259.382A54.179,54.179,0,0,1,313.5,255.059v24.928Z" fill="#fff" stroke="#fff" stroke-width="13"/>
      <path id="Pfad_47" data-name="Pfad 47" d="M202.621,178.84a72.663,72.663,0,1,0-72.663-72.663A72.745,72.745,0,0,0,202.621,178.84Zm0-130.325a57.663,57.663,0,1,1-57.663,57.663A57.727,57.727,0,0,1,202.621,48.515Z" fill="#fff" stroke="#fff" stroke-width="13"/>
    </g>
  </g>
</svg>
