<svg xmlns="http://www.w3.org/2000/svg" width="16" height="38.5" viewBox="0 0 16 38.5">
  <path id="Icon_awesome-info" data-name="Icon awesome-info" d="M1.406,29.829H2.813V19.671H1.406A1.406,1.406,0,0,1,0,18.265V14.906A1.406,1.406,0,0,1,1.406,13.5H9.281a1.406,1.406,0,0,1,1.406,1.406V29.829h1.406A1.406,1.406,0,0,1,13.5,31.235v3.359A1.406,1.406,0,0,1,12.094,36H1.406A1.406,1.406,0,0,1,0,34.594V31.235A1.406,1.406,0,0,1,1.406,29.829ZM6.75,0a5.063,5.063,0,1,0,5.063,5.063A5.062,5.062,0,0,0,6.75,0Z" transform="translate(1.25 1.25)" fill="none" stroke="#fff" stroke-width="2.5"/>
</svg>

