<svg xmlns="http://www.w3.org/2000/svg" width="275" height="132" viewBox="0 0 275 132">
  <g id="logo_me" transform="translate(-9.956 13.9)">
    <g id="_x23_178292ff">
      <path id="Pfad_1" data-name="Pfad 1" d="M31,18.2c34,.2,68,.1,102,.3,7.5.2,16.1,4.8,17.5,12.8.3,14.3,0,28.5.2,42.8,0,3.3.3,7-1.6,10-3.5,5.8-10.4,8.7-17,8.6-13.4,0-26.8.1-40.2-.1.2-12.5.1-25.1.1-37.6,0-5.9-1.2-12.1-5.2-16.6C82.4,33.5,75.2,32.1,69,33c-5.4.8-10,3.9-14.1,7.3C51.4,36.2,46.6,33,41,32.9c-6.6-.7-12.7,2.4-17.6,6.5-.7-1.7-1.3-3.4-1.9-5.1a45.567,45.567,0,0,0-6.4,0c-.9,10.9-.1,21.9-.4,32.8.1,4.9-.5,9.8.5,14.7a34.819,34.819,0,0,0,10.2-.2c.8-10.4-.1-20.9.5-31.3,2.9-6.2,11.7-9.2,17.7-5.6C47,46.8,48,51.2,47.9,55c.1,8.7,0,17.4,0,26.1,3.3,1.6,7,.9,10.5.4.6-10.8.2-21.6.1-32.4,3.6-5,10.9-7.4,16.7-5.1,4.2,1.9,5.6,6.8,5.5,11.1-.1,20.3,0,40.6.1,60.8-7.9-7.2-14.3-16-22.4-22.9-10.8-.6-21.6.5-32.4-.2C18.8,92,10.7,87,10,79.2,9.9,63.8,10,48.4,10,33c-.2-4.9,3.3-9.2,7.3-11.6,4.1-2.5,9-3.2,13.7-3.2m71.4,28.3c-4.4,9.4-3,21.4,4,29.2,9.2,10.5,27.1,9.9,36.8.3a49.584,49.584,0,0,0-5.3-7.4c-4.4,2-8.8,4.9-13.8,4.4-6.9.1-12.4-6-13.3-12.6,11.4-.2,22.9.1,34.3,0,2.7-6.2.4-13.6-3.3-19-5.2-7.3-15.1-10.3-23.6-8.1A23.567,23.567,0,0,0,102.4,46.5Z" fill="#248291"/>
      <path id="Pfad_2" data-name="Pfad 2" d="M111.2,52.6c1.3-5.2,5.3-10,10.9-10.5,6.5-1.2,12.1,4.4,13,10.5C127.1,52.7,119.1,52.7,111.2,52.6Z" fill="#248291"/>
    </g>
  </g>
  <text id="file" transform="translate(208 105)" fill="#555" font-size="100" font-family="Roboto-Regular, Roboto"><tspan x="-66.309" y="0">file</tspan></text>
</svg>
