<svg xmlns="http://www.w3.org/2000/svg" width="27" height="30" viewBox="0 0 27 30">
  <path id="password_icon" d="M17.5,1C11.891,1,7.375,4.823,7.375,9.571V11A3.158,3.158,0,0,0,4,13.857V28.143A3.158,3.158,0,0,0,7.375,31h20.25A3.158,3.158,0,0,0,31,28.143V13.857A3.158,3.158,0,0,0,27.625,11V9.571C27.625,4.823,23.109,1,17.5,1Zm0,2.857c3.841,0,6.75,2.463,6.75,5.714V11H10.75V9.571C10.75,6.32,13.659,3.857,17.5,3.857ZM10.75,19.571A1.579,1.579,0,0,1,12.438,21a1.579,1.579,0,0,1-1.687,1.429A1.579,1.579,0,0,1,9.063,21,1.579,1.579,0,0,1,10.75,19.571Zm6.75,0A1.579,1.579,0,0,1,19.188,21,1.579,1.579,0,0,1,17.5,22.429,1.579,1.579,0,0,1,15.813,21,1.579,1.579,0,0,1,17.5,19.571Zm6.75,0A1.579,1.579,0,0,1,25.938,21a1.711,1.711,0,0,1-3.375,0A1.579,1.579,0,0,1,24.25,19.571Z" transform="translate(-4 -1)" fill="#555"/>
</svg>
